[b]Episode list:[/b]
[b][code]
144."Wanderer"
"F┼½raib┼ì" (θó¿μ¥Ñσ¥è)
145."Successor of the Forbidden Jutsu"
"Kinjutsu no keish┼ìsha" (τªüΦíôπü«τ╢Öμë┐ΦÇà) 	
146."The Successor's Wish"
"Keish┼ìsha no omoi" (τ╢Öμë┐ΦÇàπü«μâ│πüä) 	
147."Rogue Ninja's Past"
"Nukenin no kako" (μè£πüæσ┐ìπü«θüÄσÄ╗) 	
148."Heir to Darkness"
"Yami no k┼ìkeisha" (θùçπü«σ╛îτ╢ÖΦÇà)
149."Separation"
"Betsuri" (σêÑθ¢ó)
150."The Forbidden Jutsu Released"
"Kinjutsu hatsud┼ì" (τªüΦíôτÖ║σïò)
151."Master and Student"
"Shitei" (σ╕½σ╝ƒ)[/code][/b] 
[b]Other info:[/b]
[b][code]
Format : MPEG-4
Format profile : Base Media
Codec ID : isom
File size : 50.5 MiB
Duration : 22mn 23s
Overall bit rate mode : Variable
Overall bit rate : 315 Kbps
Encoded date : UTC 2012-07-11 09:35:24
Tagged date : UTC 2012-07-11 09:35:24
Video
ID : 1
Format : AVC
Format/Info : Advanced Video Codec
Format profile : High@L3.0
Format settings, CABAC : Yes
Format settings, ReFrames : 5 frames
Codec ID : avc1
Codec ID/Info : Advanced Video Coding
Duration : 22mn 23s
Bit rate : 264 Kbps
Maximum bit rate : 3 210 Kbps
Width : 720 pixels
Height : 480 pixels
Display aspect ratio : 16:9
Original display aspect ratio : 16:9
Frame rate mode : Constant
Frame rate : 23.976 fps
Standard : NTSC
Color space : YUV
Chroma subsampling : 4:2:0
Bit depth : 8 bits
Scan type : Progressive
Bits/(Pixel*Frame) : 0.032
Stream size : 42.3 MiB (84%)
Writing library : x264 core 125 r2200 999b753
Audio
ID : 2
Format : AAC
Format/Info : Advanced Audio Codec
Format profile : HE-AAC / LC
Codec ID : 40
Duration : 22mn 23s
Bit rate mode : Variable
Bit rate : 48.0 Kbps
Maximum bit rate : 88.3 Kbps
Channel(s) : 2 channels
Channel positions : Front: L R
Sampling rate : 48.0 KHz / 24.0 KHz
Compression mode : Lossy
Stream size : 7.69 MiB (15%)
Encoded date : UTC 2012-07-11 09:35:27
Tagged date : UTC 2012-07-11 09:35:28
[/code][/b]
Sample image:
[IMG]http://kastatic.com/i2/u/1589620/AHzMdGB327.png[/IMG]